<svg xmlns="http://www.w3.org/2000/svg" xmlns:xlink="http://www.w3.org/1999/xlink" width="500" zoomAndPan="magnify" viewBox="0 0 375 374.999991" height="500" preserveAspectRatio="xMidYMid meet" version="1.0"><defs><g/><clipPath id="79b5561c5c"><path d="M 149.988281 110.171875 L 218.414062 110.171875 L 218.414062 178.597656 L 149.988281 178.597656 Z M 149.988281 110.171875 " clip-rule="nonzero"/></clipPath><clipPath id="ff6af61a6f"><path d="M 184.203125 110.171875 C 165.308594 110.171875 149.988281 125.488281 149.988281 144.382812 C 149.988281 163.28125 165.308594 178.597656 184.203125 178.597656 C 203.097656 178.597656 218.414062 163.28125 218.414062 144.382812 C 218.414062 125.488281 203.097656 110.171875 184.203125 110.171875 Z M 184.203125 110.171875 " clip-rule="nonzero"/></clipPath><clipPath id="3ceee42fb5"><path d="M 0.988281 0.171875 L 69.414062 0.171875 L 69.414062 68.597656 L 0.988281 68.597656 Z M 0.988281 0.171875 " clip-rule="nonzero"/></clipPath><clipPath id="a2492dffd2"><path d="M 35.203125 0.171875 C 16.308594 0.171875 0.988281 15.488281 0.988281 34.382812 C 0.988281 53.28125 16.308594 68.597656 35.203125 68.597656 C 54.097656 68.597656 69.414062 53.28125 69.414062 34.382812 C 69.414062 15.488281 54.097656 0.171875 35.203125 0.171875 Z M 35.203125 0.171875 " clip-rule="nonzero"/></clipPath><clipPath id="2f70365a97"><rect x="0" width="70" y="0" height="69"/></clipPath></defs><rect x="-37.5" width="450" fill="#ffffff" y="-37.499999" height="449.999989" fill-opacity="1"/><rect x="-37.5" width="450" fill="#fafafa" y="-37.499999" height="449.999989" fill-opacity="1"/><g fill="#11676a" fill-opacity="1"><g transform="translate(188.472605, 239.905443)"><g><path d="M 40.703125 1.375 C 29.984375 1.375 21.398438 -1.988281 14.953125 -8.71875 C 8.515625 -15.445312 5.296875 -24.679688 5.296875 -36.421875 L 5.296875 -104.15625 C 5.296875 -118.75 8.203125 -129.75 14.015625 -137.15625 C 19.835938 -144.570312 28.960938 -148.28125 41.390625 -148.28125 C 52.222656 -148.28125 60.945312 -145.316406 67.5625 -139.390625 C 74.175781 -133.460938 77.484375 -124.910156 77.484375 -113.734375 L 77.484375 -88.421875 L 48.234375 -88.421875 L 48.234375 -110.140625 C 48.234375 -114.359375 47.71875 -117.265625 46.6875 -118.859375 C 45.664062 -120.460938 43.898438 -121.265625 41.390625 -121.265625 C 38.765625 -121.265625 36.96875 -120.347656 36 -118.515625 C 35.03125 -116.691406 34.546875 -114.015625 34.546875 -110.484375 L 34.546875 -36.765625 C 34.546875 -32.890625 35.113281 -30.066406 36.25 -28.296875 C 37.394531 -26.535156 39.109375 -25.65625 41.390625 -25.65625 C 45.953125 -25.65625 48.234375 -29.359375 48.234375 -36.765625 L 48.234375 -63.28125 L 77.8125 -63.28125 L 77.8125 -35.578125 C 77.8125 -10.941406 65.441406 1.375 40.703125 1.375 Z M 40.703125 1.375 "/></g></g></g><g clip-path="url(#79b5561c5c)"><g clip-path="url(#ff6af61a6f)"><g transform="matrix(1, 0, 0, 1, 149, 110)"><g clip-path="url(#2f70365a97)"><g clip-path="url(#3ceee42fb5)"><g clip-path="url(#a2492dffd2)"><path fill="#2c639e" d="M 0.988281 0.171875 L 69.414062 0.171875 L 69.414062 68.597656 L 0.988281 68.597656 Z M 0.988281 0.171875 " fill-opacity="1" fill-rule="nonzero"/></g></g></g></g></g></g><g fill="#00273d" fill-opacity="1"><g transform="translate(79.412805, 220.134173)"><g><path d="M 10.421875 -143.34375 L 54.90625 -143.34375 C 68.34375 -143.34375 79.054688 -140.472656 87.046875 -134.734375 C 95.035156 -129.003906 99.03125 -119.710938 99.03125 -106.859375 C 99.03125 -92.492188 93.066406 -82.242188 81.140625 -76.109375 C 101.523438 -72.515625 111.71875 -60.46875 111.71875 -39.96875 C 111.71875 -27.914062 107.546875 -18.238281 99.203125 -10.9375 C 90.867188 -3.644531 79.40625 0 64.8125 0 L 10.421875 0 Z M 43.09375 -87.21875 L 45.703125 -87.21875 C 52.992188 -87.21875 58.4375 -88.492188 62.03125 -91.046875 C 65.625 -93.597656 67.421875 -97.769531 67.421875 -103.5625 C 67.421875 -113.289062 60.179688 -118.15625 45.703125 -118.15625 L 43.09375 -118.15625 Z M 43.09375 -25.1875 L 53.34375 -25.1875 C 69.320312 -25.1875 77.3125 -30.515625 77.3125 -41.171875 C 77.3125 -47.546875 75.3125 -52.125 71.3125 -54.90625 C 67.320312 -57.6875 61.332031 -59.078125 53.34375 -59.078125 L 43.09375 -59.078125 Z M 43.09375 -25.1875 "/></g></g></g></svg>