<svg xmlns="http://www.w3.org/2000/svg" xmlns:xlink="http://www.w3.org/1999/xlink" width="500" zoomAndPan="magnify" viewBox="0 0 375 374.999991" height="500" preserveAspectRatio="xMidYMid meet" version="1.0"><defs><g/><clipPath id="2fad326547"><rect x="0" width="121" y="0" height="362"/></clipPath><clipPath id="3c22cd1de8"><path d="M 130.660156 108.160156 L 231.152344 108.160156 L 231.152344 208.65625 L 130.660156 208.65625 Z M 130.660156 108.160156 " clip-rule="nonzero"/></clipPath><clipPath id="93f5a2e930"><path d="M 180.90625 108.160156 C 153.15625 108.160156 130.660156 130.65625 130.660156 158.40625 C 130.660156 186.160156 153.15625 208.65625 180.90625 208.65625 C 208.65625 208.65625 231.152344 186.160156 231.152344 158.40625 C 231.152344 130.65625 208.65625 108.160156 180.90625 108.160156 Z M 180.90625 108.160156 " clip-rule="nonzero"/></clipPath><clipPath id="ab0701fc98"><path d="M 0.660156 0.160156 L 101.152344 0.160156 L 101.152344 100.65625 L 0.660156 100.65625 Z M 0.660156 0.160156 " clip-rule="nonzero"/></clipPath><clipPath id="9b8c053081"><path d="M 50.90625 0.160156 C 23.15625 0.160156 0.660156 22.65625 0.660156 50.40625 C 0.660156 78.160156 23.15625 100.65625 50.90625 100.65625 C 78.65625 100.65625 101.152344 78.160156 101.152344 50.40625 C 101.152344 22.65625 78.65625 0.160156 50.90625 0.160156 Z M 50.90625 0.160156 " clip-rule="nonzero"/></clipPath><clipPath id="e3c4ae758e"><rect x="0" width="102" y="0" height="101"/></clipPath><clipPath id="55adee195e"><rect x="0" width="172" y="0" height="320"/></clipPath></defs><g transform="matrix(1, 0, 0, 1, 186, 13)"><g clip-path="url(#2fad326547)"><g fill="#11676a" fill-opacity="1"><g transform="translate(1.17621, 285.69408)"><g><path d="M 59.78125 2.015625 C 44.039062 2.015625 31.4375 -2.921875 21.96875 -12.796875 C 12.507812 -22.679688 7.78125 -36.25 7.78125 -53.5 L 7.78125 -152.96875 C 7.78125 -174.40625 12.050781 -190.566406 20.59375 -201.453125 C 29.132812 -212.335938 42.53125 -217.78125 60.78125 -217.78125 C 76.695312 -217.78125 89.507812 -213.425781 99.21875 -204.71875 C 108.925781 -196.007812 113.78125 -183.453125 113.78125 -167.046875 L 113.78125 -129.859375 L 70.828125 -129.859375 L 70.828125 -161.765625 C 70.828125 -167.960938 70.070312 -172.234375 68.5625 -174.578125 C 67.0625 -176.921875 64.46875 -178.09375 60.78125 -178.09375 C 56.9375 -178.09375 54.300781 -176.75 52.875 -174.0625 C 51.445312 -171.382812 50.734375 -167.453125 50.734375 -162.265625 L 50.734375 -54 C 50.734375 -48.3125 51.570312 -44.164062 53.25 -41.5625 C 54.925781 -38.96875 57.4375 -37.671875 60.78125 -37.671875 C 67.476562 -37.671875 70.828125 -43.113281 70.828125 -54 L 70.828125 -92.9375 L 114.296875 -92.9375 L 114.296875 -52.25 C 114.296875 -16.070312 96.125 2.015625 59.78125 2.015625 Z M 59.78125 2.015625 "/></g></g></g></g></g><g clip-path="url(#3c22cd1de8)"><g clip-path="url(#93f5a2e930)"><g transform="matrix(1, 0, 0, 1, 130, 108)"><g clip-path="url(#e3c4ae758e)"><g clip-path="url(#ab0701fc98)"><g clip-path="url(#9b8c053081)"><path fill="#ff751f" d="M 0.660156 0.160156 L 101.152344 0.160156 L 101.152344 100.65625 L 0.660156 100.65625 Z M 0.660156 0.160156 " fill-opacity="1" fill-rule="nonzero"/></g></g></g></g></g></g><g transform="matrix(1, 0, 0, 1, 26, 40)"><g clip-path="url(#55adee195e)"><g fill="#00273d" fill-opacity="1"><g transform="translate(1.006422, 229.65716)"><g><path d="M 15.3125 -210.53125 L 80.640625 -210.53125 C 100.367188 -210.53125 116.101562 -206.316406 127.84375 -197.890625 C 139.582031 -189.472656 145.453125 -175.820312 145.453125 -156.9375 C 145.453125 -135.84375 136.691406 -120.785156 119.171875 -111.765625 C 149.109375 -106.492188 164.078125 -88.800781 164.078125 -58.6875 C 164.078125 -41 157.953125 -26.796875 145.703125 -16.078125 C 133.460938 -5.359375 116.625 0 95.1875 0 L 15.3125 0 Z M 63.28125 -128.109375 L 67.109375 -128.109375 C 77.828125 -128.109375 85.820312 -129.976562 91.09375 -133.71875 C 96.375 -137.457031 99.015625 -143.582031 99.015625 -152.09375 C 99.015625 -166.382812 88.378906 -173.53125 67.109375 -173.53125 L 63.28125 -173.53125 Z M 63.28125 -37 L 78.34375 -37 C 101.820312 -37 113.5625 -44.828125 113.5625 -60.484375 C 113.5625 -69.835938 110.625 -76.554688 104.75 -80.640625 C 98.882812 -84.722656 90.082031 -86.765625 78.34375 -86.765625 L 63.28125 -86.765625 Z M 63.28125 -37 "/></g></g></g></g></g></svg>